<svg width="83" height="35" viewBox="0 0 83 35" fill="none" xmlns="http://www.w3.org/2000/svg">
<path d="M42.06 26.1C40.4733 26.1 39.0933 25.8133 37.92 25.24C36.7467 24.6533 35.8467 23.8267 35.22 22.76C34.5933 21.6933 34.28 20.4533 34.28 19.04C34.28 17.08 34.6467 15.34 35.38 13.82C36.1267 12.3 37.1333 11.1267 38.4 10.3C39.6667 9.46 41.0733 9.04 42.62 9.04C44.06 9.04 45.1533 9.41333 45.9 10.16C46.6467 10.8933 47.02 11.8667 47.02 13.08C47.02 13.8933 46.8733 14.5467 46.58 15.04C46.3 15.5333 45.8933 15.78 45.36 15.78C44.9867 15.78 44.6933 15.6933 44.48 15.52C44.2667 15.3467 44.16 15.0933 44.16 14.76C44.16 14.64 44.1867 14.42 44.24 14.1C44.32 13.7 44.36 13.38 44.36 13.14C44.36 11.9267 43.7133 11.32 42.42 11.32C41.54 11.32 40.7 11.6067 39.9 12.18C39.1 12.7533 38.4533 13.6 37.96 14.72C37.4667 15.8267 37.22 17.1467 37.22 18.68C37.22 20.28 37.6667 21.52 38.56 22.4C39.4533 23.2667 40.7733 23.7 42.52 23.7C43.3867 23.7 44.26 23.5933 45.14 23.38C46.0333 23.1533 47.02 22.8133 48.1 22.36C48.3 22.28 48.4667 22.24 48.6 22.24C48.8133 22.24 48.9733 22.32 49.08 22.48C49.1867 22.64 49.24 22.8467 49.24 23.1C49.24 23.9133 48.8 24.5133 47.92 24.9C46.9733 25.3133 45.9867 25.62 44.96 25.82C43.9467 26.0067 42.98 26.1 42.06 26.1ZM57.6756 19.86C57.849 19.86 57.9823 19.9467 58.0756 20.12C58.169 20.2933 58.2156 20.5133 58.2156 20.78C58.2156 21.42 58.0223 21.8 57.6356 21.92C56.8356 22.2 55.9556 22.36 54.9956 22.4C54.7423 23.52 54.2423 24.42 53.4956 25.1C52.749 25.7667 51.9023 26.1 50.9556 26.1C50.1556 26.1 49.469 25.9067 48.8956 25.52C48.3356 25.1333 47.909 24.62 47.6156 23.98C47.3223 23.34 47.1756 22.6467 47.1756 21.9C47.1756 20.8867 47.369 19.9867 47.7556 19.2C48.1423 18.4 48.6756 17.78 49.3556 17.34C50.0356 16.8867 50.789 16.66 51.6156 16.66C52.629 16.66 53.4423 17.0133 54.0556 17.72C54.6823 18.4133 55.049 19.2733 55.1556 20.3C55.7823 20.26 56.529 20.1267 57.3956 19.9C57.5023 19.8733 57.5956 19.86 57.6756 19.86ZM51.1156 23.98C51.5423 23.98 51.909 23.8067 52.2156 23.46C52.5356 23.1133 52.749 22.6133 52.8556 21.96C52.4423 21.68 52.1223 21.3133 51.8956 20.86C51.6823 20.4067 51.5756 19.9267 51.5756 19.42C51.5756 19.2067 51.5956 18.9933 51.6356 18.78H51.5356C51.0023 18.78 50.5556 19.04 50.1956 19.56C49.849 20.0667 49.6756 20.7867 49.6756 21.72C49.6756 22.4533 49.8156 23.0133 50.0956 23.4C50.389 23.7867 50.729 23.98 51.1156 23.98ZM66.6991 19.86C66.8724 19.86 67.0057 19.9467 67.0991 20.12C67.1924 20.2933 67.2391 20.5133 67.2391 20.78C67.2391 21.42 67.0457 21.8 66.6591 21.92C65.8591 22.2 64.9791 22.36 64.0191 22.4C63.7657 23.52 63.2657 24.42 62.5191 25.1C61.7724 25.7667 60.9257 26.1 59.9791 26.1C59.1791 26.1 58.4924 25.9067 57.9191 25.52C57.3591 25.1333 56.9324 24.62 56.6391 23.98C56.3457 23.34 56.1991 22.6467 56.1991 21.9C56.1991 20.8867 56.3924 19.9867 56.7791 19.2C57.1657 18.4 57.6991 17.78 58.3791 17.34C59.0591 16.8867 59.8124 16.66 60.6391 16.66C61.6524 16.66 62.4657 17.0133 63.0791 17.72C63.7057 18.4133 64.0724 19.2733 64.1791 20.3C64.8057 20.26 65.5524 20.1267 66.4191 19.9C66.5257 19.8733 66.6191 19.86 66.6991 19.86ZM60.1391 23.98C60.5657 23.98 60.9324 23.8067 61.2391 23.46C61.5591 23.1133 61.7724 22.6133 61.8791 21.96C61.4657 21.68 61.1457 21.3133 60.9191 20.86C60.7057 20.4067 60.5991 19.9267 60.5991 19.42C60.5991 19.2067 60.6191 18.9933 60.6591 18.78H60.5591C60.0257 18.78 59.5791 19.04 59.2191 19.56C58.8724 20.0667 58.6991 20.7867 58.6991 21.72C58.6991 22.4533 58.8391 23.0133 59.1191 23.4C59.4124 23.7867 59.7524 23.98 60.1391 23.98ZM77.0825 21.54C77.2558 21.54 77.3892 21.62 77.4825 21.78C77.5892 21.94 77.6425 22.16 77.6425 22.44C77.6425 22.9733 77.5158 23.3867 77.2625 23.68C76.6625 24.4133 76.0558 25 75.4425 25.44C74.8292 25.88 74.1025 26.1 73.2625 26.1C72.2358 26.1 71.4092 25.8067 70.7825 25.22C70.1558 24.6333 69.8425 23.8533 69.8425 22.88C69.8425 22.36 70.1092 21.9867 70.6425 21.76C71.2292 21.5067 71.6492 21.24 71.9025 20.96C72.1558 20.6667 72.2825 20.3133 72.2825 19.9C72.2825 19.66 72.2292 19.48 72.1225 19.36C72.0292 19.24 71.9092 19.18 71.7625 19.18C71.4025 19.18 71.0025 19.44 70.5625 19.96C70.1358 20.48 69.7358 21.1533 69.3625 21.98C68.9892 22.7933 68.6958 23.6333 68.4825 24.5C68.3358 25.1267 68.1625 25.5533 67.9625 25.78C67.7758 25.9933 67.4758 26.1 67.0625 26.1C66.6492 26.1 66.3425 25.9533 66.1425 25.66C65.9558 25.3533 65.8292 24.8867 65.7625 24.26C65.6958 23.6333 65.6625 22.7133 65.6625 21.5C65.6625 19.4467 65.8692 17.3067 66.2825 15.08C66.7092 12.8533 67.3292 10.9867 68.1425 9.48C68.9692 7.96 69.9558 7.2 71.1025 7.2C71.7158 7.2 72.2092 7.46667 72.5825 8C72.9692 8.52 73.1625 9.2 73.1625 10.04C73.1625 11.3867 72.7692 12.7867 71.9825 14.24C71.1958 15.68 69.9158 17.3667 68.1425 19.3C68.1025 19.9933 68.0825 20.7067 68.0825 21.44C68.7225 19.7733 69.4558 18.5667 70.2825 17.82C71.1092 17.06 71.8825 16.68 72.6025 16.68C73.2692 16.68 73.8025 16.9067 74.2025 17.36C74.6158 17.8133 74.8225 18.3733 74.8225 19.04C74.8225 19.7733 74.6358 20.4467 74.2625 21.06C73.8892 21.6733 73.2492 22.22 72.3425 22.7C72.3958 23.06 72.5558 23.3533 72.8225 23.58C73.1025 23.7933 73.4358 23.9 73.8225 23.9C74.2358 23.9 74.6358 23.74 75.0225 23.42C75.4092 23.1 75.9158 22.5667 76.5425 21.82C76.7025 21.6333 76.8825 21.54 77.0825 21.54ZM70.6825 9.18C70.4425 9.18 70.1758 9.52667 69.8825 10.22C69.5892 10.9 69.3025 11.8267 69.0225 13C68.7558 14.16 68.5358 15.4267 68.3625 16.8C69.1892 15.8267 69.8692 14.7667 70.4025 13.62C70.9492 12.4733 71.2225 11.4333 71.2225 10.5C71.2225 10.0733 71.1758 9.74667 71.0825 9.52C70.9892 9.29333 70.8558 9.18 70.6825 9.18ZM79.7503 26.54C79.057 26.54 78.5236 26.38 78.1503 26.06C77.7903 25.74 77.6103 25.38 77.6103 24.98C77.6103 24.6333 77.737 24.3333 77.9903 24.08C78.2436 23.8267 78.617 23.7 79.1103 23.7C79.2836 23.7 79.4836 23.72 79.7103 23.76C79.9503 23.7867 80.1303 23.8067 80.2503 23.82C80.237 23.4733 80.157 23.1467 80.0103 22.84C79.877 22.5333 79.7036 22.24 79.4903 21.96C79.277 21.6667 79.077 21.4133 78.8903 21.2C78.477 21.9867 78.0636 22.64 77.6503 23.16C77.2503 23.68 76.8103 24.1733 76.3303 24.64C76.0903 24.88 75.837 25 75.5703 25C75.357 25 75.1836 24.9267 75.0503 24.78C74.917 24.62 74.8503 24.4267 74.8503 24.2C74.8503 23.9333 74.9436 23.6867 75.1303 23.46L75.3903 23.14C76.1236 22.2333 76.677 21.4867 77.0503 20.9C77.2903 20.5133 77.5303 20.0533 77.7703 19.52C78.0236 18.9867 78.3503 18.26 78.7503 17.34C79.0036 16.7533 79.5303 16.46 80.3303 16.46C80.7036 16.46 80.9636 16.4933 81.1103 16.56C81.257 16.6267 81.3303 16.7333 81.3303 16.88C81.3303 16.96 81.3036 17.0867 81.2503 17.26C81.197 17.4333 81.1236 17.6067 81.0303 17.78C80.7903 18.26 80.6703 18.6667 80.6703 19C80.6703 19.2 80.737 19.42 80.8703 19.66C81.017 19.9 81.237 20.2 81.5303 20.56C81.957 21.12 82.277 21.6 82.4903 22C82.717 22.3867 82.8303 22.8133 82.8303 23.28C82.8303 23.84 82.697 24.3733 82.4303 24.88C82.177 25.3733 81.817 25.7733 81.3503 26.08C80.8836 26.3867 80.3503 26.54 79.7503 26.54Z" fill="#4B4B4B"/>
<path d="M13.0208 6.5625C11.1771 6.5625 9.55208 7.78125 9.03125 9.55208C8.47917 9.30208 7.89583 9.16667 7.29167 9.16667C6.1866 9.16667 5.12679 9.60565 4.34539 10.3871C3.56399 11.1685 3.125 12.2283 3.125 13.3333C3.12747 14.2561 3.43541 15.152 4.00075 15.8813C4.56609 16.6106 5.357 17.1322 6.25 17.3646V24.7917H19.7917V17.3646C21.625 16.8854 22.9167 15.2292 22.9167 13.3333C22.9167 12.2283 22.4777 11.1685 21.6963 10.3871C20.9149 9.60565 19.8551 9.16667 18.75 9.16667C18.1458 9.16667 17.5625 9.30208 17.0104 9.55208C16.4896 7.78125 14.8646 6.5625 13.0208 6.5625ZM12.5 15.9375H13.5417V23.2292H12.5V15.9375ZM9.375 18.0208H10.4167V23.2292H9.375V18.0208ZM15.625 18.0208H16.6667V23.2292H15.625V18.0208ZM6.25 25.8333V26.875C6.25 27.1513 6.35975 27.4162 6.5551 27.6116C6.75045 27.8069 7.0154 27.9167 7.29167 27.9167H18.75C19.0263 27.9167 19.2912 27.8069 19.4866 27.6116C19.6819 27.4162 19.7917 27.1513 19.7917 26.875V25.8333H6.25Z" fill="#E47915"/>
</svg>
